<svg xmlns="http://www.w3.org/2000/svg" viewBox="0 0 96 96" role="img" aria-labelledby="title">
  <title id="title">tcptun icon</title>
  <defs>
    <linearGradient id="bg" x1="12" y1="10" x2="86" y2="88" gradientUnits="userSpaceOnUse">
      <stop offset="0" stop-color="#152a25"/>
      <stop offset="0.48" stop-color="#101820"/>
      <stop offset="1" stop-color="#17263a"/>
    </linearGradient>
    <linearGradient id="green" x1="18" y1="48" x2="78" y2="48" gradientUnits="userSpaceOnUse">
      <stop offset="0" stop-color="#5ee0b7"/>
      <stop offset="1" stop-color="#a7ffd8"/>
    </linearGradient>
    <linearGradient id="blue" x1="78" y1="48" x2="18" y2="48" gradientUnits="userSpaceOnUse">
      <stop offset="0" stop-color="#7db6ff"/>
      <stop offset="1" stop-color="#b8dbff"/>
    </linearGradient>
  </defs>
  <rect x="5" y="5" width="86" height="86" rx="22" fill="url(#bg)"/>
  <path d="M26 30h22c11 0 19 8 19 18s-8 18-19 18H30" fill="none" stroke="url(#green)" stroke-width="9" stroke-linecap="round"/>
  <path d="M70 66H48c-11 0-19-8-19-18s8-18 19-18h18" fill="none" stroke="url(#blue)" stroke-width="9" stroke-linecap="round"/>
  <path d="M27 30l-9 9 9 9" fill="none" stroke="#5ee0b7" stroke-width="7" stroke-linecap="round" stroke-linejoin="round"/>
  <path d="M69 66l9-9-9-9" fill="none" stroke="#7db6ff" stroke-width="7" stroke-linecap="round" stroke-linejoin="round"/>
  <circle cx="48" cy="48" r="9" fill="#101820" stroke="#f4f7fb" stroke-width="4"/>
  <path d="M42 48h12" stroke="#f4f7fb" stroke-width="4" stroke-linecap="round"/>
</svg>
